<?xml version="1.0" encoding="UTF-8" standalone="no"?>
<!DOCTYPE svg PUBLIC "-//W3C//DTD SVG 1.1//EN" "http://www.w3.org/Graphics/SVG/1.1/DTD/svg11.dtd">
<svg width="100%" height="100%" viewBox="0 0 357 114" version="1.1" xmlns="http://www.w3.org/2000/svg" xmlns:xlink="http://www.w3.org/1999/xlink" xml:space="preserve" xmlns:serif="http://www.serif.com/" style="fill-rule:evenodd;clip-rule:evenodd;stroke-linecap:round;stroke-linejoin:round;stroke-miterlimit:1.5;">
    <g transform="matrix(1,0,0,1,-474.612,-353.768)">
        <g transform="matrix(0.5132,0,0,0.5132,180.831,301.139)">
            <g transform="matrix(241.621,0,0,241.621,1272.99,303.727)">
            </g>
            <text x="885.425px" y="303.727px" style="font-family:'SFProDisplay-Bold', 'SF Pro Display';font-weight:700;font-size:241.621px;fill:rgb(242,242,247);">Filo</text>
        </g>
        <g transform="matrix(1,0,0,1,0,208.689)">
            <g transform="matrix(1.1116,0,0,1.1116,-310.607,-237.265)">
                <g transform="matrix(0.863356,0,0,0.873352,208.922,58.2688)">
                    <path d="M615,336.659C615,334.129 612.926,332.079 610.367,332.079L582.568,332.079C580.01,332.079 577.935,334.129 577.935,336.659L577.935,437.42C577.935,439.949 580.01,442 582.568,442L610.367,442C612.926,442 615,439.949 615,437.42L615,336.659Z" style="fill:rgb(53,144,255);"/>
                    <clipPath id="_clip1">
                        <path d="M615,336.659C615,334.129 612.926,332.079 610.367,332.079L582.568,332.079C580.01,332.079 577.935,334.129 577.935,336.659L577.935,437.42C577.935,439.949 580.01,442 582.568,442L610.367,442C612.926,442 615,439.949 615,437.42L615,336.659Z"/>
                    </clipPath>
                    <g clip-path="url(#_clip1)">
                        <g transform="matrix(0.781489,0,0,0.858383,205.728,101.846)">
                            <rect x="476.279" y="268.217" width="35.571" height="106.714" style="fill:rgb(242,242,247);fill-opacity:0.2;"/>
                        </g>
                    </g>
                    <path d="M615,336.659C615,334.129 612.926,332.079 610.367,332.079L582.568,332.079C580.01,332.079 577.935,334.129 577.935,336.659L577.935,437.42C577.935,439.949 580.01,442 582.568,442L610.367,442C612.926,442 615,439.949 615,437.42L615,336.659Z" style="fill:none;stroke:rgb(29,29,31);stroke-width:3.45px;"/>
                </g>
                <g transform="matrix(0.557887,0,0,0.437187,391.125,215.11)">
                    <path d="M615,341.228C615,338.801 614.245,336.474 612.9,334.758C611.555,333.043 609.732,332.079 607.83,332.079C601.282,332.079 591.653,332.079 585.105,332.079C583.204,332.079 581.38,333.043 580.035,334.758C578.691,336.474 577.935,338.801 577.935,341.228C577.935,361.927 577.935,412.152 577.935,432.851C577.935,435.277 578.691,437.604 580.035,439.32C581.38,441.036 583.204,442 585.105,442C591.653,442 601.282,442 607.83,442C609.732,442 611.555,441.036 612.9,439.32C614.245,437.604 615,435.277 615,432.851C615,412.152 615,361.927 615,341.228Z" style="fill:rgb(242,242,247);stroke:rgb(29,29,31);stroke-width:5.99px;"/>
                </g>
                <g transform="matrix(0.431678,0,0,0.145559,466.404,371.953)">
                    <path d="M615,387.025C615,356.679 606.705,332.079 596.472,332.079L596.463,332.079C586.23,332.079 577.935,356.679 577.935,387.025L577.935,387.039C577.935,401.616 579.888,415.595 583.363,425.902C586.839,436.21 591.553,442 596.468,442L596.468,442C606.703,442 615,417.393 615,387.039L615,387.025Z" style="fill:rgb(242,242,247);stroke:rgb(29,29,31);stroke-width:9.31px;"/>
                </g>
                <g transform="matrix(0.165964,0,0,0.0559618,624.894,406.631)">
                    <path d="M615,387.009C615,356.672 606.707,332.079 596.478,332.079L596.457,332.079C586.228,332.079 577.935,356.672 577.935,387.009C577.935,387.029 577.935,387.049 577.935,387.07C577.935,417.407 586.228,442 596.457,442C596.464,442 596.471,442 596.478,442C606.707,442 615,417.407 615,387.07L615,387.009Z" style="fill:rgb(142,142,147);stroke:rgb(29,29,31);stroke-width:24.22px;"/>
                </g>
                <g transform="matrix(0.557887,0,0,0.0921017,391.125,329.705)">
                    <path d="M615,375.509C615,363.991 614.245,352.944 612.9,344.799C611.555,336.654 609.732,332.079 607.83,332.079C601.282,332.079 591.653,332.079 585.105,332.079C583.204,332.079 581.38,336.654 580.035,344.799C578.691,352.944 577.935,363.991 577.935,375.509C577.935,406.237 577.935,442 577.935,442L615,442L615,375.509Z" style="fill:rgb(142,142,147);stroke:rgb(29,29,31);stroke-width:7.5px;"/>
                </g>
                <g transform="matrix(1,0,0,0.865681,24.3036,67.1845)">
                    <path d="M696.133,385.589L696.133,358.34" style="fill:none;stroke:rgb(17,17,19);stroke-width:3.21px;"/>
                </g>
                <g transform="matrix(1,0,0,0.58514,31.203,175.358)">
                    <path d="M696.133,385.589L696.133,358.34" style="fill:none;stroke:rgb(17,17,19);stroke-width:3.66px;"/>
                </g>
            </g>
            <g transform="matrix(1.1116,0,0,1.1116,-275.036,-237.265)">
                <g transform="matrix(0.863356,0,0,0.873352,208.922,58.2688)">
                    <path d="M615,336.659C615,334.129 612.926,332.079 610.367,332.079L582.568,332.079C580.01,332.079 577.935,334.129 577.935,336.659L577.935,437.42C577.935,439.949 580.01,442 582.568,442L610.367,442C612.926,442 615,439.949 615,437.42L615,336.659Z" style="fill:rgb(255,216,31);"/>
                    <clipPath id="_clip2">
                        <path d="M615,336.659C615,334.129 612.926,332.079 610.367,332.079L582.568,332.079C580.01,332.079 577.935,334.129 577.935,336.659L577.935,437.42C577.935,439.949 580.01,442 582.568,442L610.367,442C612.926,442 615,439.949 615,437.42L615,336.659Z"/>
                    </clipPath>
                    <g clip-path="url(#_clip2)">
                        <g transform="matrix(0.781489,0,0,0.858383,205.728,101.846)">
                            <rect x="476.279" y="268.217" width="35.571" height="106.714" style="fill:rgb(242,242,247);fill-opacity:0.35;"/>
                        </g>
                    </g>
                    <path d="M615,336.659C615,334.129 612.926,332.079 610.367,332.079L582.568,332.079C580.01,332.079 577.935,334.129 577.935,336.659L577.935,437.42C577.935,439.949 580.01,442 582.568,442L610.367,442C612.926,442 615,439.949 615,437.42L615,336.659Z" style="fill:none;stroke:rgb(29,29,31);stroke-width:3.45px;"/>
                </g>
                <g transform="matrix(0.557887,0,0,0.437187,391.125,215.11)">
                    <path d="M615,341.228C615,338.801 614.245,336.474 612.9,334.758C611.555,333.043 609.732,332.079 607.83,332.079C601.282,332.079 591.653,332.079 585.105,332.079C583.204,332.079 581.38,333.043 580.035,334.758C578.691,336.474 577.935,338.801 577.935,341.228C577.935,361.927 577.935,412.152 577.935,432.851C577.935,435.277 578.691,437.604 580.035,439.32C581.38,441.036 583.204,442 585.105,442C591.653,442 601.282,442 607.83,442C609.732,442 611.555,441.036 612.9,439.32C614.245,437.604 615,435.277 615,432.851C615,412.152 615,361.927 615,341.228Z" style="fill:rgb(242,242,247);stroke:rgb(29,29,31);stroke-width:5.99px;"/>
                </g>
                <g transform="matrix(0.431678,0,0,0.145559,466.404,371.953)">
                    <path d="M615,387.039C615,356.685 606.703,332.079 596.468,332.079C596.466,332.079 596.465,332.079 596.463,332.079C586.23,332.079 577.935,356.679 577.935,387.025L577.935,387.053C577.935,417.399 586.23,442 596.463,442L596.468,442C606.703,442 615,417.393 615,387.039L615,387.039Z" style="fill:rgb(242,242,247);stroke:rgb(29,29,31);stroke-width:9.31px;"/>
                </g>
                <g transform="matrix(0.165964,0,0,0.0559618,624.894,406.631)">
                    <path d="M615,387.009C615,356.672 606.707,332.079 596.478,332.079L596.457,332.079C586.228,332.079 577.935,356.672 577.935,387.009C577.935,387.029 577.935,387.049 577.935,387.07C577.935,417.407 586.228,442 596.457,442L596.478,442C606.707,442 615,417.407 615,387.07L615,387.009Z" style="fill:rgb(142,142,147);stroke:rgb(29,29,31);stroke-width:24.22px;"/>
                </g>
                <g transform="matrix(0.557887,0,0,0.0921017,391.125,329.705)">
                    <path d="M615,375.509C615,363.991 614.245,352.944 612.9,344.799C611.555,336.654 609.732,332.079 607.83,332.079C601.282,332.079 591.653,332.079 585.105,332.079C583.204,332.079 581.38,336.654 580.035,344.799C578.691,352.944 577.935,363.991 577.935,375.509C577.935,406.237 577.935,442 577.935,442L615,442L615,375.509Z" style="fill:rgb(142,142,147);stroke:rgb(29,29,31);stroke-width:7.5px;"/>
                </g>
                <g transform="matrix(1,0,0,0.865681,24.3036,67.1845)">
                    <path d="M696.133,385.589L696.133,358.34" style="fill:none;stroke:rgb(17,17,19);stroke-width:3.21px;"/>
                </g>
                <g transform="matrix(1,0,0,0.58514,31.203,175.358)">
                    <path d="M696.133,385.589L696.133,358.34" style="fill:none;stroke:rgb(17,17,19);stroke-width:3.66px;"/>
                </g>
                <g transform="matrix(1,0,0,0.11053,35.8895,375.496)">
                    <path d="M696.133,385.589L696.133,358.34" style="fill:none;stroke:rgb(17,17,19);stroke-width:4.22px;"/>
                </g>
                <g transform="matrix(1,0,0,0.0738842,30.0701,386.615)">
                    <path d="M696.133,385.589L696.133,358.34" style="fill:none;stroke:rgb(17,17,19);stroke-width:4.23px;"/>
                </g>
            </g>
            <g transform="matrix(1.09471,-0.193027,0.193027,1.09471,-295.443,-92.4166)">
                <g transform="matrix(0.863356,0,0,0.873352,208.922,58.2688)">
                    <path d="M615,336.659C615,334.129 612.926,332.079 610.367,332.079L582.568,332.079C580.01,332.079 577.935,334.129 577.935,336.659L577.935,437.42C577.935,439.949 580.01,442 582.568,442L610.367,442C612.926,442 615,439.949 615,437.42L615,336.659Z" style="fill:rgb(142,142,147);"/>
                    <clipPath id="_clip3">
                        <path d="M615,336.659C615,334.129 612.926,332.079 610.367,332.079L582.568,332.079C580.01,332.079 577.935,334.129 577.935,336.659L577.935,437.42C577.935,439.949 580.01,442 582.568,442L610.367,442C612.926,442 615,439.949 615,437.42L615,336.659Z"/>
                    </clipPath>
                    <g clip-path="url(#_clip3)">
                        <g transform="matrix(0.781489,5.78691e-17,-4.11942e-16,0.858383,207.683,101.846)">
                            <rect x="476.279" y="268.217" width="35.571" height="106.714" style="fill:rgb(242,242,247);fill-opacity:0.15;"/>
                        </g>
                    </g>
                    <path d="M615,336.659C615,334.129 612.926,332.079 610.367,332.079L582.568,332.079C580.01,332.079 577.935,334.129 577.935,336.659L577.935,437.42C577.935,439.949 580.01,442 582.568,442L610.367,442C612.926,442 615,439.949 615,437.42L615,336.659Z" style="fill:none;stroke:rgb(29,29,31);stroke-width:3.45px;"/>
                </g>
                <g transform="matrix(0.557887,0,0,0.437187,391.125,215.11)">
                    <path d="M615,341.228C615,338.801 614.245,336.474 612.9,334.758C611.555,333.043 609.732,332.079 607.83,332.079C601.282,332.079 591.653,332.079 585.105,332.079C583.204,332.079 581.38,333.043 580.035,334.758C578.691,336.474 577.935,338.801 577.935,341.228C577.935,361.927 577.935,412.152 577.935,432.851C577.935,435.277 578.691,437.604 580.035,439.32C581.38,441.036 583.204,442 585.105,442C591.653,442 601.282,442 607.83,442C609.732,442 611.555,441.036 612.9,439.32C614.245,437.604 615,435.277 615,432.851C615,412.152 615,361.927 615,341.228Z" style="fill:rgb(242,242,247);stroke:rgb(29,29,31);stroke-width:5.99px;"/>
                </g>
                <g transform="matrix(0.431678,0,0,0.145559,466.404,371.953)">
                    <path d="M615,387.039C615,356.685 606.703,332.079 596.468,332.079C596.466,332.079 596.465,332.079 596.463,332.079C586.23,332.079 577.935,356.679 577.935,387.025L577.935,387.053C577.935,417.399 586.23,442 596.463,442C596.465,442 596.466,442 596.468,442C606.703,442 615,417.393 615,387.039L615,387.039Z" style="fill:rgb(242,242,247);stroke:rgb(29,29,31);stroke-width:9.31px;"/>
                </g>
                <g transform="matrix(0.165964,0,0,0.0559618,624.894,406.631)">
                    <path d="M615,387.009C615,356.672 606.707,332.079 596.478,332.079L596.457,332.079C586.228,332.079 577.935,356.672 577.935,387.009L577.935,387.07C577.935,417.407 586.228,442 596.457,442L596.478,442C606.707,442 615,417.407 615,387.07L615,387.009Z" style="fill:rgb(142,142,147);stroke:rgb(29,29,31);stroke-width:24.22px;"/>
                </g>
                <g transform="matrix(0.557887,0,0,0.0921017,391.125,329.705)">
                    <path d="M615,375.509C615,363.991 614.245,352.944 612.9,344.799C611.555,336.654 609.732,332.079 607.83,332.079C601.282,332.079 591.653,332.079 585.105,332.079C583.204,332.079 581.38,336.654 580.035,344.799C578.691,352.944 577.935,363.991 577.935,375.509C577.935,406.237 577.935,442 577.935,442L615,442L615,375.509Z" style="fill:rgb(142,142,147);stroke:rgb(29,29,31);stroke-width:7.5px;"/>
                </g>
                <g transform="matrix(1,0,0,0.865681,24.3036,67.1845)">
                    <path d="M696.133,385.589L696.133,358.34" style="fill:none;stroke:rgb(17,17,19);stroke-width:3.21px;"/>
                </g>
                <g transform="matrix(1,0,0,0.58514,31.203,175.358)">
                    <path d="M696.133,385.589L696.133,358.34" style="fill:none;stroke:rgb(17,17,19);stroke-width:3.66px;"/>
                </g>
            </g>
        </g>
        <g transform="matrix(0.653242,0,0,0.653242,7.53032,135.089)">
            <circle cx="728.036" cy="352.178" r="3.365" style="fill:white;fill-opacity:0.5;"/>
        </g>
        <g transform="matrix(1.52626,0,0,7.06923,-685.426,-2138.5)">
            <path d="M774.442,354.161C774.442,353.989 773.798,353.85 773.003,353.85C772.018,353.85 770.716,353.85 769.73,353.85C768.935,353.85 768.291,353.989 768.291,354.161C768.291,354.161 768.291,354.161 768.291,354.161C768.291,354.333 768.935,354.472 769.73,354.472C770.716,354.472 772.018,354.472 773.003,354.472C773.798,354.472 774.442,354.333 774.442,354.161C774.442,354.161 774.442,354.161 774.442,354.161Z" style="fill:white;fill-opacity:0.5;"/>
        </g>
    </g>
</svg>
